<?xml version="1.0" encoding="UTF-8"?>
<svg id="Layer_1" xmlns="http://www.w3.org/2000/svg" version="1.1" viewBox="0 0 505.82 625.85">
  <!-- Generator: Adobe Illustrator 29.8.9, SVG Export Plug-In . SVG Version: 2.1.1 Build 1)  -->
  <defs>
    <style>
      .st0 {
        fill: #fff;
      }
    </style>
  </defs>
  <g>
    <path d="M214.63,619.85c-9.1,0-17.76-1.27-25.73-3.78-2.53-.79-9.24-2.91-10.35-8.74-1.07-5.6,3.62-9.4,7.39-12.46,1.17-.95,3.16-2.57,4.1-3.68-.71-.37-2.19-.77-4.81-.77-7.46,0-18.25,3.15-26.14,5.46-3.46,1.01-6.45,1.88-8.72,2.37-8.78,1.89-17.35,2.84-25.48,2.84-23.22,0-42.33-7.51-56.8-22.32-4.96-5.08-12.83-14.7-9.73-22.06.89-2.12,3.38-5.67,10.06-5.67.84,0,1.74.05,2.7.16,3.51.4,6.51,1.17,9.42,1.92,3.72.96,6.93,1.78,10.86,1.78.71,0,1.44-.03,2.17-.08,25.39-1.96,37.9-43.62,42.1-61.44l.41-1.73,1.29-1.23c.16-.15.32-.29.49-.42-10.04-5.98-20.48-13.82-25.91-22.8-25.31-41.81,7.68-95.33,18.39-110.73.69-.99,1.91-2.52,3.6-4.64,1.94-2.43,5.88-7.37,7.98-10.49-2.02-1.72-5.01-4.06-6.9-5.53-3.47-2.71-5.67-4.44-6.89-5.67-4.84-4.89-11.54-14.11-14.64-20.13-5.95-11.57-7.65-23.56-9.29-35.16-.2-1.43-.41-2.88-.62-4.34-1.57,1.28-3.19,2.71-4.67,4.01-6.99,6.17-14.22,12.54-22.47,12.54-3.59,0-6.89-1.22-9.79-3.64-8.52-7.08-9.35-25.01-2.46-53.28.5-2.05,1.45-4.89,2.54-8.19,1.25-3.75,3.72-11.16,4.1-14.26-2.36-3.73-4.44-7.59-6.47-11.34-2.51-4.65-4.88-9.04-7.68-13.1-14.38-20.82-30.93-45.71-44.69-72.41l-.7-1.34c-3.39-6.53-6.9-13.28-4.52-23.06,2.6-10.68,13.39-18.74,25.09-18.74,5.29,0,10.14,1.71,14.02,4.95.77.64,1.43,1.41,2.07,2.23,25.96-19.86,60.42-43.31,101.97-56.4,26.26-8.27,53.77-12.47,81.75-12.47,36.11,0,71.47,7.23,102.24,20.92,33.55,14.92,60.84,36.72,81.11,64.79,3.12,4.32,20.36,30.28,21.68,41.33.25,2.07.71,5.92-1.91,8.87-1.08,1.22-3.05,2.67-6.31,2.67-.91,0-1.87-.11-2.94-.34l-1.54-.33-1.18-1.04c-47.89-42.31-103.57-64.67-161.03-64.67-12.87,0-25.98,1.13-38.96,3.35-40.41,6.92-94.97,30.25-125.75,66.75-.28.33-.56.66-.84.98-.65.75-1.63,1.88-1.8,2.35.68,1.52,3.11,5.96,5.2,9.6,37.41-47.86,96.67-75.17,163.69-75.17,4.9,0,9.89.15,14.82.44,33.69,2.02,48.44,13.83,71.62,34.52,19.75,17.64,38.61,46.48,50.44,77.14,13.02,33.76,16.49,65.95,9.75,90.66-2.06,7.55-5.33,14.96-9.67,22.08,7.94-5.92,17.58-9.68,28.56-11.07.52-2.58.97-5.36,1.44-8.23,1.05-6.44,2.14-13.1,4.18-18.75,1.11-3.08,4.27-8.24,12.89-8.24,3.94,0,7.96,1.09,10.9,1.89,4.75,1.29,12.54,3.41,11.88,13.66-.2,3.09-1.47,8.04-2.93,13.78-.96,3.75-2.43,9.48-2.95,12.8,7.86,4.64,15.2,9.89,20.58,18.7,4.27,6.99,5.29,12.19,6.29,17.21.48,2.44.94,4.76,1.78,7.41.22.25.63.65.92.94.94.92,2.11,2.07,3.02,3.58,4.09,6.81,3.18,12.61,1.74,17.38-2.13,7.06-7.01,8.58-9.63,9.39-.23.07-.52.16-.75.24-.32.82-.72,2.06-.97,2.96.58.44,1.22,1.02,1.83,1.78,5.92,7.48,6.06,12.65,4.17,20.74-.36,1.55-1.11,2.73-1.6,3.51-.06.09-.12.19-.18.29.04.33.14.84.21,1.23.32,1.6.75,3.79.32,6.57-.53,3.39-2.06,5.94-3.19,7.8-.48.79-.93,1.54-1.12,2.06-.21.56-.36,1.49-.52,2.48-.27,1.61-.6,3.61-1.43,5.59-3.02,7.26-10.93,11.14-17.12,13.71-.48,1.47-.93,2.98-1.37,4.45-2.87,9.64-6.38,21.45-21.19,23.53-.17.55-.34,1.14-.52,1.74-3.55,11.93-8.42,28.27-20.06,30.82-1.46.32-3.02.48-4.65.48-8.67,0-19.77-4.5-33.95-13.76-5.29-3.46-11-7.19-15.22-12.42,2.71,41.07-.3,80.78-28.56,104.02-.13.11-13.33,10.64-21.88,10.64-4.18,0-6.39-2.22-7.34-3.55l-.82-1.15-.22-1.4c-.96-6.01.9-10.59,2.38-14.28,1.06-2.64,1.94-4.8,1.91-7.38-2.11,1.3-5.69,4.21-11.75,10.29-1.22,1.22-2.09,2.1-2.77,2.69-19.56,16.82-52.94,34.79-87.99,34.79ZM279.07,513.62c.28.26.7.48,1.42.48h0c1.26,0,2.72-.72,3.4-1.68.26-.36.33-.65.31-.93l-46.82-76.19c-1.09.39-2.35.9-3.47,1.4.35.7.72,1.4.96,1.82.27.5.52.95.71,1.34,6.38,12.63,14.4,25.38,22.15,37.72,7.36,11.71,14.96,23.81,21.34,36.03ZM398.74,391.85c.01.33.04.68.05.99.09,1.48.19,3.32.05,5.47-.73,10.75-1.04,21.75-1.34,32.38l-.13,4.53c-.04,1.56-.25,3.27-.47,5.09-.3,2.48-1.01,8.29-.04,9.6,2.07,2.2,14.6,5.62,25.28,6.88,5.56.66,10.32.99,14.15.99,5.26,0,7.18-.63,7.66-.83.63-.75,2.32-3.64,4.48-14.14l-.79-.62c-1.77,1.02-3.9,1.59-6.23,1.59-4.88,0-9.42-2.45-11.57-6.24-2.29-4.05-2.28-8.84.04-12.81,2.31-3.97,6.52-6.43,10.99-6.43.36,0,.71.02,1.07.05-.01-.58-.07-1.31-.15-2.26-.2-2.21-.45-4.97.22-8.01.2-.9.47-1.7.78-2.43-6.09-1.68-11.52-4.35-16.82-6.96-7.54-3.7-14.65-7.2-22.82-7.2-.86,0-1.73.04-2.59.11-.79.07-1.39.15-1.83.23ZM203.07,397.82c-.8,1.1-1.68,2.54-2.35,3.97-2.97,6.38-2.38,9.93.77,16.72,2.85,6.13,4.34,7.37,5.82,7.37h0c.74,0,1.71-.23,2.8-.67.71-.3,3.07-1.64,4.18-2.37.25-1.07.08-4.27-4.37-13.47-1.2-2.49-4.53-8.18-6.86-11.55ZM447.13,387.07c.63.19,1.29.37,1.88.51.02-.03.04-.05.05-.08.87-1.29,1.77-2.62,2.89-3.62,1.25-1.12,2.56-2.04,3.91-2.78l-7.3-.72-1.43,6.7ZM196.58,374.87l3.32-2.31c-.77-1.53-1.97-3.66-3.61-6.37-.38-.63-.69-1.15-.9-1.51-18.96-33.04-39.22-66.31-58.8-98.48-8.52-13.99-17.33-28.46-25.91-42.71-3.45-5.73-6.89-11.73-10.54-18.08-6.79-11.84-13.81-24.06-20.81-34.32l-2.6,1.49,119.85,202.29ZM399.3,372.52s.06,0,.09,0c1.3-.08,2.56-.16,3.68-.21l-3.65-.79c0,.09-.08.74-.11,1ZM358.82,351.09c1.38,1.13,2.84,2.29,3.9,3.12,2.08,1.63,4.04,3.18,5.37,4.41.3.28,1.01.99,2,1.99,3.65,3.68,6.44,6.39,8.58,8.39.09-1.65.09-3.19-.1-4.12-.04-.02-.08-.04-.11-.07-.79-.46-1.87-1.09-2.8-2.17-5.02-5.78-3.46-16.4-.45-21.52,1.19-2.03,2.98-3.58,4.72-5.07.87-.75,1.96-1.69,2.35-2.23.41-.56.82-1.21,1.23-1.92-7.14,7.04-15.44,13.51-24.69,19.19ZM470.76,344.71c-1.83-6.26-5.73-12.52-11.12-16.34l-2.69,14.83,13.8,1.51ZM420.2,337.63l3.52-15.61c-7.3,2.4-14.09,7.2-18.03,13.01l14.51,2.6ZM239.76,307.24c2.98,0,5.72.15,8.38.46,10.09,1.16,12.25,10.1,13.67,16.01,1.34,5.58,2.27,8.34,4.95,9.53,1.37.6,2.66.91,3.83.91,3.49,0,5.12-2.8,5.86-5.19.07-.32.13-.77.22-1.29.69-4.34,1.97-12.41,8.95-12.41,1.44,0,3.59.44,5.71,2.54,2.21,2.19,3.22,5.15,4.2,8.01,1.76,5.13,2.7,6.79,5.2,7.14.63.09,1.22.14,1.74.14,2.48,0,3.25-.35,4.63-8.16.33-1.87.67-3.81,1.21-5.66,1.78-6.14,5.58-7.06,7.68-7.06,5.58,0,8.11,5.87,10.34,11.06.3.71.71,1.65.92,2.08.74.88,1.39,1,1.88,1,1.63,0,3.88-1.57,4.62-3.91.56-1.78.57-3.9.57-6.15,0-5.42.01-13.6,10.07-17.91,3.45-1.48,6.74-2.47,9.64-3.35,8.22-2.48,12.74-3.85,16.07-13.08,1.62-4.5,1.31-6.62.74-10.46-.29-1.93-.61-4.12-.73-6.88-.21-5.06.11-10.03.42-14.83.32-4.9.62-9.53.37-14.05-2.44-42.96-35.68-77.27-84.67-87.4-4.28-.89-7.9-1.63-11.19-1.63-3.06,0-5.7.64-8.56,2.07-8.4,4.19-26.92,18.25-34.97,24.85-16,13.11-31.66,34.19-38.09,51.25-8.64,22.94-11.48,62.71,16.1,78.25,6.6,3.72,11.79,4.49,17.54,4.49,1.86,0,3.76-.08,5.77-.17,2.2-.09,4.48-.19,6.92-.19ZM251.89,54.61c-48.79,0-97.37,15.25-136.79,42.93-11.04,7.75-30.28,23.94-32.24,28.5-.48,1.12-.3,2.96.27,4.7,32.35-32.44,71.24-55.23,112.89-66.11,21.56-5.63,43.29-8.48,64.6-8.48,10.27,0,20.51.66,30.72,1.97-12.8-2.33-26-3.51-39.45-3.51Z"/>
    <path class="st0" d="M231.69,12c69,0,137.65,26.66,178.49,83.23,5.4,7.48,19.59,30.22,20.58,38.53.35,2.9.26,4.82-2.26,4.82-.47,0-1.03-.07-1.69-.21-46.87-41.41-103.37-66.17-165-66.17-13.11,0-26.44,1.12-39.98,3.44-45.41,7.78-99.69,33.65-129.33,68.8-2.37,2.81-4.87,5.06-3.82,8.93.43,1.59,8.76,16.48,9.61,16.97.21.12.48.17.77.17.51,0,1.07-.17,1.44-.44,37.81-52.12,98.6-78,162.83-78,4.8,0,9.62.14,14.46.43,32.13,1.92,45.43,12.87,67.98,33.01,38.58,34.46,72.19,111.17,58.4,161.75-7.32,26.87-30,48.63-54.14,61.99-.97.19-.47,1-.11,1.54,1.97,3.07,10.82,9.2,14.08,12.22,1.59,1.47,16.23,16.87,19.31,16.87.18,0,.32-.05.42-.16.18-4.51,2.31-15.19-.32-18.6-.88-1.14-2.57-1.64-3.23-2.41-2.87-3.31-1.87-11.03.19-14.56,1.29-2.2,5.04-4.47,6.73-6.78,2.47-3.37,4.22-8.08,6.95-11.76,9.52-12.83,23.68-19.14,39.69-20.21,2.43-9.29,3.19-21.67,6.38-30.5,1.19-3.28,4.02-4.28,7.25-4.28s6.71.97,9.42,1.71c4.61,1.25,7.72,2.1,7.38,7.46-.4,6.14-7.27,26.44-5.9,30.42,8.69,4.94,16.2,9.74,21.46,18.36,5.75,9.41,4.68,14.83,7.61,23.73.63,1.9,3.2,3.42,4.38,5.37,2.56,4.26,2.53,7.91,1.14,12.56-1.93,6.41-6.59,4.38-9.25,7.28-.88.96-2.39,5.86-2.52,7.25-.43,4.39,1.71,3.32,3.29,5.31,4.49,5.67,4.64,8.74,3.03,15.65-.3,1.3-1.7,2.45-1.9,4.14-.32,2.57,1.07,4.7.57,7.91-.56,3.63-3.01,5.98-4.01,8.71-.86,2.34-.81,5.32-1.86,7.83-2.48,5.96-10.61,9.16-16.35,11.48-4.7,12.49-4.76,26.65-22.28,26.84-2.9,8.12-7.35,30.19-17.38,32.38-1.07.23-2.2.34-3.37.34-10,0-23.17-7.89-30.67-12.78-7.96-5.2-15.95-10.4-18.24-20.02-5.12-21.5-6.59-52.15-18.19-71.31-.48-.79-.07-1.56-1.07-1.56-.21,0-.47.03-.82.1,6.41,24.11,10.71,48.98,12.9,73.85,3.17,35.91,5.55,85.45-25.46,110.93-2.4,1.97-12.83,9.27-18.07,9.27-1.08,0-1.94-.31-2.46-1.04-1.39-8.74,5.38-13.31,4.23-22.7-.43-3.55-1.9-4.93-3.92-4.93-6.26,0-17.81,13.13-20.38,15.34-21.31,18.33-53.67,33.34-84.08,33.34-8.2,0-16.26-1.09-23.93-3.51-19.28-6.07,12.67-13.1,4.31-22.77-1.98-2.29-5.5-3.15-9.78-3.16-11.66,0-28.95,6.42-36.12,7.96-8.05,1.73-16.21,2.71-24.22,2.71-19.46,0-38.09-5.76-52.5-20.51-4.21-4.31-14.88-17.53-3.96-17.53.6,0,1.27.04,2.02.13,7.41.85,12.92,3.75,20.96,3.75.85,0,1.72-.03,2.63-.1,28.37-2.19,42.12-43.32,47.48-66.05.03-.03.1-.05.18-.05,1.98,0,17.15,7.57,19.58,8.56,6.7,2.72,19.26,7.9,28.86,7.9,3.41,0,6.44-.65,8.71-2.3,7.57-5.5,10.14-27.1,11-36.01.39-4.04,2.07-28.61-.06-29.98h-2.49s-1.12,1.15-1.12,1.15c-1.47,14.42-1.73,29.03-5.19,43.17-1.22,4.98-3.46,15.72-9.8,16.46-.34.04-.71.06-1.1.06-7.16,0-23.2-6.18-29.34-8.83-14.19-6.11-35.67-17.61-43.66-30.81-19.61-32.4-1.42-76,18.19-104.2,2.2-3.17,14.38-17.29,13.74-19.72-.57-2.15-13.9-11.53-16.6-14.26-4.4-4.45-10.72-13.12-13.57-18.66-7.57-14.72-7.72-30.46-10.75-46.28-8.78,1.94-20.96,20.08-31.64,20.08-2.05,0-4.05-.67-5.96-2.25-9.2-7.64-3.03-36.72-.46-47.24,1.4-5.72,7.69-21.32,6.76-25.71-5.51-8.35-9.49-17.79-15.16-26.01-15.91-23.05-31.4-46.73-44.29-71.75-3.57-6.92-6.7-12.1-4.72-20.24,2.01-8.27,10.8-14.16,19.26-14.16,3.64,0,7.23,1.09,10.18,3.55,1.47,1.23,3.75,5.5,5.39,5.5.05,0,.09,0,.14-.01,31.8-24.68,65.14-46.25,104.16-58.55,25.58-8.06,52.8-12.19,79.95-12.19M82.55,139.94c31.24-32.96,70.26-57.83,114.98-69.5,21.32-5.57,42.37-8.29,63.08-8.29,39.8,0,78.41,10.04,115.55,29.21,5.33,2.75,10.37,6.2,15.93,8.54-20.27-19.33-48.35-33.42-75.36-41.75-20.95-6.46-42.87-9.54-64.85-9.54-49.9,0-100.14,15.86-140.24,44.02-7.47,5.25-31.17,23.76-34.3,31.04-2.17,5.03.62,13.35,5.2,16.27M23.05,94.72l12.89-7.79c-1.53-2.08-3.49-2.95-5.42-2.95-4.84,0-9.58,5.4-7.46,10.74M227.07,313.59c4.08,0,8.18-.35,12.69-.35,2.43,0,4.97.1,7.7.42,11.61,1.34,5.26,19.93,16.89,25.06,2.18.96,4.29,1.42,6.26,1.42,5.41,0,9.78-3.46,11.63-9.53.5-1.63.97-9.37,3.4-9.37.43,0,.92.24,1.48.8,3.61,3.58,2.94,15.43,12.78,16.83.93.13,1.79.2,2.58.2,10.51,0,9.54-11.04,11.61-18.15.57-1.96,1.23-2.73,1.92-2.73,2.38,0,5.2,9.08,6.35,10.59,1.9,2.48,4.34,3.54,6.8,3.54,4.4,0,8.85-3.39,10.34-8.1,2.5-7.91-2.41-16.2,7.28-20.35,12.59-5.39,23.19-3.82,29-19.9,3.08-8.55.7-11.67.36-19.63-.41-9.74,1.33-19.45.78-28.97-2.81-49.4-41.98-83.12-89.45-92.93-4.51-.93-8.47-1.76-12.41-1.76-3.64,0-7.26.71-11.24,2.7-9.01,4.5-27.88,18.84-36.1,25.58-15.82,12.96-32.74,34.77-39.9,53.78-10.46,27.77-10.81,68.92,18.77,85.59,7.8,4.4,14.13,5.26,20.49,5.26M195.8,382.72l10.88-7.58c1.17-1.95-4.74-11.12-6.09-13.46-27.27-47.5-56.49-94.33-84.77-141.29-10.4-17.27-21.58-38.52-32.91-54.67-.62-.88-1.31-1.69-2.14-2.39l-11.04,6.34.04,2.93,123.37,208.23,2.66,1.88M139.98,178.59c-6.46,5.17-17.91,23.67-16.66,31.5.35,2.17,1.81,3.45,3.38,4.86l13.28-36.35M449.8,308.46l5.25-28.12-7.51-.81-5.33,28.2,7.58.73M431.59,314.42c-12.46.73-25.67,8.27-31.91,18.9-1.19,2.03-2.64,3.77-2.26,6.32l27.38,4.9,6.79-30.13M440.69,347.82l6.87-30.07-.76-1.5-6.44-1.11-6.51,30.09.74,1.51,6.1,1.08M477.92,351.53c-.4-13.11-9.58-28.15-22.78-31.92l-5.23,28.86,28.01,3.06M479.14,368.5c2.2,0,3.98-.15,4.54-.58,3.2-2.47.66-6.55-3.29-7.32-12.79-2.5-28.76-2.75-42.22-4.75-14.22-2.12-31.75-7.62-45.03-8.7-.7-.06-1.43-.17-2.15-.17-.48,0-.96.05-1.42.2-.93.31-2.58,3.28-2.65,4.11-.31,3.48,12,5.28,14.92,5.94,20.48,4.64,44.93,8.93,65.84,10.61,1.9.15,7.41.65,11.47.65M394.49,378.76c2.34,0,8.41-.52,10.96-.52.27,0,.5,0,.69.02,3.88.28,7.89,1.75,11.75,2.2l2.17-9.44-.59-1.32-25.84-5.55c.98,2.73-1.77,13.3-.05,14.53.08.06.41.08.92.08M432.34,386.41l3.02-14.07c-1.23-.09-3.44-.85-5.16-.85-.88,0-1.63.2-2.06.79-.88,6.41-5.6,13.11,4.2,14.13M450.73,393.84c.35,0,.64-.03.84-.1,1.16-.38,3.07-4.22,4.39-5.4,4.38-3.93,10.11-4.41,15.74-5.02l1.62-6.52-29.51-2.93-3.47,16.3c.73,1.62,7.57,3.67,10.39,3.67M215.96,391.22c2.43,0,5.09-2.03,7.36-2.41,3.32-.56,12.38.97,11.47-4.83-.63-4.01-6.49-4.81-10.07-4.81-.19,0-.38,0-.56,0-3.17.08-14.14,1.31-13.44,5.94.08.55,2.16,4.58,2.57,4.99.83.82,1.74,1.12,2.68,1.12M436.29,463.79c4.79,0,9.24-.48,11.28-2.01,4.01-3.02,6.52-16.41,7.45-21.41l-8.23-6.46c-.47,2.69-2.84,3.89-5.38,3.89s-5.2-1.17-6.34-3.2c-2.77-4.89,1.07-10.28,5.81-10.28,1.31,0,2.69.41,4.01,1.36,5.46-5.03,1.67-10.32,2.99-16.3.77-3.48,3.61-4.82,4.22-8.11-18.38-1.51-30.63-15.76-48.94-15.76-1.02,0-2.05.04-3.11.14-9.99.88-6.68,4.73-7.19,12.27-.84,12.37-1.12,24.69-1.48,37.15-.15,5.16-2.76,14.8,1.07,18.93,4.46,4.8,22.25,7.98,28.99,8.78,3.23.38,9.27,1.03,14.85,1.03M141.51,413.87c8.05-5.69,16.28-11.15,25.61-14.67,3.06-1.15,18.21-4.38,17.63-7.88-.25-1.5-1.94-2.01-4.16-2.01-4.15,0-10.14,1.83-11.94,2.47-9.52,3.44-22.97,12.92-27.13,22.09M207.31,431.89c1.48,0,3.14-.34,5.04-1.11,1.22-.49,5.65-3,6.38-3.78,4.23-4.51-1.05-15.38-3.43-20.31-1.44-2.98-8.37-15.11-10.78-16.2-.34-.15-.68-.22-1.03-.22-3.32,0-7.01,6.44-8.21,9-3.87,8.29-2.96,13.75.77,21.79,2.71,5.85,5.63,10.84,11.26,10.84M477.69,403.39c.6,0,1.09-.18,1.39-.62,2.61-6.12-5.98-10.3-11.25-10.3-.25,0-.48,0-.71.03-3.14.25-7.09,2.33-5.58,5.82.79,1.13,7.06,1.82,8.95,2.39,1.48.44,5.06,2.68,7.2,2.68M224.19,406.07c2.94-1.44,15.28-1.47,16.61-2.77,1.16-1.13,1.07-3.43.4-4.84-1.22-2.55-5.85-3.78-10.54-3.78-8.44,0-17.09,3.98-6.47,11.39M473.38,420.58c1.97,0,3.7-2.45,3.79-4.18.23-4.36-8.59-7.9-14.75-7.9-2.98,0-5.34.83-5.76,2.79-.16.74-.23,2.64.13,3.21.97,1.52,13.84,4.24,16.27,6.07.11.02.22.02.33.02M229.25,422.79c3.23,0,12.48-3.88,14.03-5.56,4.69-5.09-1.73-6.43-6.93-6.43-1.5,0-2.9.11-3.91.28-1.88.31-6.06,2.13-6.51,4.05-.28,1.18,1.38,7.15,2.65,7.57.18.06.41.09.68.09M190.35,436.97c1.47,0,3.37-.5,5.77-1.64.78-1.07-4.92-11.26-6.14-12.8-.55-.69-.71-1.31-1.57-1.31-.16,0-.35.02-.57.07-2.33,6.52-3.8,15.68,2.51,15.68M466.28,434.54c.83,0,1.61-.13,2.32-.43,2.14-.91,4.19-4.02,2.28-5.94-1.12-1.13-10.22-3.81-13.79-3.81-.58,0-1.01.07-1.24.23-3.89,2.66,4.37,9.95,10.44,9.95M280.49,520.1c5.58,0,11.38-5.01,9.27-11.02l-49.3-80.23c-.19-.14-.49-.2-.87-.2-3.11,0-11.79,4.14-12.11,4.67-1.4,2.37,1.61,7.01,2.74,9.26,12.66,25.07,30.83,49.31,43.84,74.42,1.67,2.18,4.03,3.11,6.43,3.11M231.69,0c-28.6,0-56.71,4.29-83.56,12.75-40.27,12.69-73.87,34.8-99.72,54.25-4.73-3.47-10.41-5.3-16.54-5.3-14.39,0-27.69,10.02-30.92,23.32-2.91,11.97,1.49,20.44,5.03,27.25.23.43.46.88.69,1.32,13.92,27,30.6,52.09,45.09,73.07,2.61,3.79,4.91,8.04,7.34,12.54,1.71,3.17,3.46,6.41,5.4,9.64-.78,3.2-2.51,8.4-3.45,11.21-1.14,3.42-2.12,6.38-2.68,8.66-1.64,6.73-3.76,16.83-4.49,26.65-1.2,15.99,1.73,26.68,8.94,32.67,3.96,3.29,8.67,5.03,13.63,5.03,8.83,0,16.21-5.26,22.77-10.85,1.54,10.04,3.68,20.3,8.94,30.53,3.38,6.58,10.43,16.27,15.71,21.61,1.48,1.5,3.69,3.24,7.46,6.19.67.52,1.51,1.18,2.38,1.87-1.65,2.15-3.4,4.34-4.46,5.68-1.94,2.43-3.07,3.86-3.84,4.96-12.16,17.49-21.26,36.85-25.6,54.51-5.94,24.15-3.59,45.26,7,62.76,5.1,8.43,13.81,15.78,23,21.79-3.07,13-14.7,55.06-36.7,56.76-.57.04-1.15.07-1.71.07-3.17,0-5.9-.7-9.36-1.59-2.96-.76-6.32-1.63-10.24-2.07-1.18-.13-2.31-.2-3.38-.2-10.52,0-14.41,6.53-15.59,9.34-3.52,8.37,1.69,16.48,3.4,19.14,2.98,4.63,6.54,8.4,7.56,9.44,15.42,15.78,36.55,24.12,61.09,24.12,8.56,0,17.56-1,26.75-2.98,2.48-.53,5.57-1.43,9.14-2.48,4.17-1.22,9.18-2.68,13.95-3.75-1.8,2.87-2.87,6.35-2.06,10.57,1.78,9.35,11.31,12.35,14.44,13.34,8.56,2.69,17.82,4.06,27.53,4.06,36.68,0,71.52-18.72,91.9-36.24.02-.02.04-.04.06-.05-.05,1.6.04,3.3.33,5.12l.44,2.8,1.65,2.3c2.75,3.85,7.21,6.06,12.22,6.06,10.96,0,25.09-11.51,25.69-12,16.03-13.18,26.05-33.07,29.8-59.12,1.69-11.77,2.03-23.75,1.68-35.58,1.75,1.22,3.49,2.36,5.15,3.44l.07.04c15.18,9.92,27.36,14.74,37.23,14.74,2.06,0,4.05-.21,5.93-.62,14.44-3.15,20.26-20.73,24.03-33.29,5.86-1.58,10.66-4.73,14.36-9.43,4.25-5.41,6.17-11.84,7.86-17.52.17-.59.35-1.17.52-1.74,6.65-2.98,14.29-7.5,17.76-15.83,1.09-2.62,1.5-5.1,1.81-6.91.08-.45.17-1.04.25-1.37.14-.26.41-.71.62-1.05,1.3-2.16,3.27-5.42,3.98-9.98.49-3.15.16-5.77-.16-7.6.49-.95.99-2.14,1.32-3.55,1.99-8.51,2.03-15.25-3.5-23.37,3.2-1.82,6.86-5.11,8.75-11.39,1.58-5.24,3.05-13.23-2.34-22.2-1.22-2.04-2.71-3.55-3.76-4.58-.51-1.83-.86-3.59-1.22-5.42-1.04-5.28-2.23-11.27-7.05-19.18-5.16-8.45-11.96-14-19-18.5.63-2.77,1.46-6.02,2.06-8.38,1.78-6.96,2.88-11.4,3.11-14.88.53-8.19-3.16-12.92-6.36-15.45-3.24-2.57-6.75-3.52-9.84-4.36l-.1-.03c-3.26-.89-7.73-2.1-12.47-2.1-8.84,0-15.77,4.56-18.53,12.2-2.23,6.17-3.37,13.11-4.46,19.82-.22,1.34-.43,2.65-.65,3.93-3.52.65-6.91,1.54-10.15,2.66.83-2.26,1.55-4.53,2.17-6.81,7.07-25.93,3.54-59.46-9.94-94.4-12.34-31.98-31.31-60.94-52.04-79.46-10.66-9.52-19.62-17.24-29.36-23.08,33.45,10.07,65.41,28.22,94.46,53.88l2.36,2.08,3.08.66c1.49.32,2.86.47,4.2.47,4.28,0,8.12-1.66,10.8-4.68,4.41-4.96,3.69-10.99,3.38-13.56-1.7-14.21-22.56-43.84-22.77-44.13-20.9-28.95-49.01-51.41-83.54-66.76C304.84,7.41,268.64,0,231.69,0h0ZM227.07,301.59c-4.95,0-9.12-.62-14.6-3.71-24.29-13.69-21.34-49.91-13.43-70.91,6-15.92,21.25-36.41,36.28-48.73,9.22-7.56,26.58-20.5,33.85-24.12,2.02-1.01,3.78-1.43,5.88-1.43,2.68,0,6.02.69,9.89,1.49l.09.02c46.25,9.56,77.61,41.7,79.89,81.86.24,4.15-.05,8.61-.36,13.32-.32,4.96-.66,10.09-.43,15.47.13,3.07.5,5.53.79,7.51.52,3.51.66,4.46-.45,7.54-2.31,6.4-4.4,7.03-12.16,9.37-3.05.92-6.51,1.97-10.27,3.57-11.97,5.12-13.48,14.83-13.68,21-2.57-4.1-6.31-7.66-12.36-7.66-2.38,0-10.38.82-13.45,11.39-.62,2.15-1.01,4.33-1.35,6.25-1.09-3.18-2.45-7.13-5.64-10.3-3.56-3.53-7.37-4.28-9.93-4.28-2.35,0-10.26.79-13.48,10.99-.74,2.33-1.12,4.72-1.39,6.47-.04.27-.08.52-.12.74-.11.3-.22.52-.31.67-.22-.04-.54-.12-.99-.3-.6-.93-1.28-3.78-1.7-5.51-.82-3.38-1.74-7.22-3.86-10.83-3.25-5.54-8.56-8.99-14.95-9.73-2.89-.33-5.86-.5-9.07-.5-2.56,0-4.9.1-7.17.19-1.95.08-3.78.16-5.52.16h0ZM402.37,446.16c.06-1.6.32-3.77.48-5.12.24-1.95.46-3.8.51-5.64l.13-4.59c.31-11.04.61-21.48,1.33-32.09.03-.39.05-.78.06-1.15,6.11.46,11.87,3.29,18.44,6.52,3.83,1.88,7.92,3.89,12.38,5.56-.12,1.23-.15,2.39-.12,3.46-4.49,1.36-8.43,4.41-10.89,8.62-3.4,5.84-3.43,12.86-.08,18.79,3.06,5.41,9.25,8.98,15.92,9.27-.23.76-.45,1.37-.63,1.87-.85.08-2.03.14-3.62.14-3.59,0-8.11-.32-13.45-.95-6.59-.78-16.15-2.9-20.47-4.68h0Z"/>
  </g>
  <path class="st0" d="M287.11,322.04c-3.75-3.72-4.3,6.65-4.88,8.57-2.53,8.27-9.73,11.71-17.89,8.11-11.62-5.13-5.27-23.72-16.89-25.06-15.71-1.81-25.38,3.42-40.88-5.32-29.57-16.67-29.22-57.83-18.77-85.59,7.16-19.01,24.08-40.82,39.9-53.78,8.22-6.74,27.08-21.08,36.1-25.58,8.29-4.14,14.97-2.73,23.65-.94,47.46,9.81,86.64,43.53,89.45,92.93.54,9.52-1.19,19.23-.78,28.97.34,7.96,2.72,11.08-.36,19.63-5.8,16.08-16.41,14.52-29,19.9-9.68,4.14-4.77,12.44-7.28,20.35-2.32,7.34-11.85,11.47-17.13,4.55-1.49-1.95-5.75-16.54-8.27-7.86-2.22,7.64-.94,19.84-14.19,17.95-9.84-1.4-9.17-13.25-12.78-16.83ZM328.58,271.1c7.76,7.48,19.62,9.85,28.61,2.88,15.58-12.1,11.5-47.08-5.09-56.66-28.39-16.4-45.6,32.51-23.52,53.79ZM239.3,219.62c-36.78,4.34-37.07,65.13.55,68.81,49.25,4.83,47.03-74.42-.55-68.81ZM300.02,267.03c-5.54.96-11.5,17.73-10.27,23.11,2.01,8.77,10.35-.59,12.35-.67,2.87-.12,6.43,4.94,10.34,1.64,6.43-5.43-5.51-25.27-12.42-24.07Z"/>
  <path class="st0" d="M392.1,99.91c-5.56-2.34-10.6-5.79-15.93-8.54-56.47-29.15-116.34-37.19-178.63-20.93-44.72,11.68-83.75,36.54-114.98,69.5-4.58-2.93-7.37-11.24-5.2-16.27,3.13-7.28,26.83-25.79,34.3-31.04,57.77-40.57,136.59-55.6,205.09-34.48,27.01,8.33,55.09,22.42,75.36,41.75Z"/>
  <path class="st0" d="M206.68,375.14l-10.88,7.58-2.66-1.88-123.37-208.23-.04-2.93,11.04-6.34c.83.7,1.52,1.5,2.14,2.39,11.32,16.15,22.51,37.4,32.91,54.67,28.28,46.97,57.51,93.79,84.77,141.29,1.34,2.34,7.26,11.51,6.09,13.46Z"/>
  <path class="st0" d="M452.09,401.26c-.6,3.29-3.45,4.63-4.22,8.11-1.31,5.98,2.47,11.27-2.99,16.3-6.13-4.37-13.36,2.68-9.82,8.93,2.31,4.08,10.79,4.68,11.73-.69l8.23,6.46c-.93,4.99-3.43,18.39-7.45,21.41-4.43,3.33-20.14,1.69-26.14.98-6.74-.79-24.53-3.97-28.99-8.78-3.83-4.13-1.22-13.77-1.07-18.93.36-12.46.64-24.78,1.48-37.15.51-7.54-2.8-11.39,7.19-12.27,20.07-1.76,32.64,14.03,52.05,15.63ZM422.11,413.49c-7.55-.2-9.36,10.72-1.93,12.65,10.13,2.64,11.4-12.4,1.93-12.65ZM409.33,432.19c5.71-6.1-2.84-15.89-9.66-9.82-7.34,6.53,4.03,15.83,9.66,9.82ZM422.2,431.18c-8.16.55-8.37,14.72,2.13,13.08,7.89-1.23,6.13-13.64-2.13-13.08ZM407.79,439.32c-9.69.48-8.51,15.57,1.33,14.62s7.8-15.07-1.33-14.62ZM432.12,444.46c-5.74,1.66-6.32,12.7,1.56,13.8,11.76,1.64,11.04-17.44-1.56-13.8Z"/>
  <path class="st0" d="M227.48,433.32c.35-.59,11.24-5.73,12.97-4.47l49.3,80.23c3.01,8.6-10.16,15.15-15.7,7.91-13.01-25.11-31.18-49.36-43.84-74.42-1.14-2.25-4.14-6.89-2.74-9.26Z"/>
  <path class="st0" d="M389.57,347.19c1.15-.38,2.4-.13,3.58-.03,13.28,1.08,30.81,6.58,45.03,8.7,13.46,2,29.43,2.25,42.22,4.75,3.95.77,6.49,4.85,3.29,7.32-1.58,1.22-13.09.16-16.01-.08-20.91-1.69-45.36-5.98-65.84-10.61-2.91-.66-15.23-2.47-14.92-5.94.07-.83,1.72-3.8,2.65-4.1Z"/>
  <path class="st0" d="M218.73,427c-.73.78-5.16,3.29-6.38,3.78-9.13,3.67-12.87-2.35-16.3-9.73-3.73-8.04-4.63-13.49-.77-21.79,1.32-2.83,5.69-10.38,9.23-8.77,2.4,1.09,9.34,13.22,10.78,16.2,2.38,4.93,7.66,15.8,3.43,20.31Z"/>
  <path class="st0" d="M431.59,314.42l-6.79,30.13-27.38-4.9c-.38-2.55,1.07-4.29,2.26-6.32,6.24-10.64,19.45-18.18,31.91-18.91Z"/>
  <path class="st0" d="M477.92,351.53l-28.01-3.06,5.23-28.86c13.2,3.77,22.39,18.81,22.78,31.92Z"/>
  <path class="st0" d="M473.32,376.79l-1.62,6.52c-5.63.61-11.36,1.09-15.74,5.02-1.32,1.18-3.23,5.02-4.39,5.4-1.87.62-10.42-1.76-11.24-3.57l3.47-16.3,29.51,2.93Z"/>
  <path class="st0" d="M417.89,380.45c-3.86-.44-7.87-1.92-11.75-2.2-2.28-.16-12.06.78-12.56.42-1.72-1.23,1.03-11.8.05-14.53l25.84,5.55.59,1.32-2.17,9.44Z"/>
  <polygon class="st0" points="440.69 347.82 434.59 346.74 433.85 345.22 440.36 315.13 446.8 316.24 447.56 317.74 440.69 347.82"/>
  <path class="st0" d="M141.51,413.87c4.16-9.17,17.61-18.65,27.13-22.09,2.76-1,15.38-4.76,16.1-.46.59,3.5-14.57,6.72-17.63,7.88-9.33,3.52-17.56,8.98-25.61,14.67Z"/>
  <polygon class="st0" points="455.05 280.34 449.8 308.46 442.22 307.73 447.54 279.54 455.05 280.34"/>
  <path class="st0" d="M224.15,379.17c3.5-.08,9.97.58,10.63,4.81.91,5.8-8.15,4.27-11.47,4.83-3.15.53-7.04,4.22-10.03,1.29-.41-.4-2.49-4.44-2.57-4.99-.7-4.64,10.26-5.87,13.44-5.94Z"/>
  <path class="st0" d="M240.8,403.3c-1.33,1.3-13.67,1.33-16.61,2.77-16.52-11.53,13.58-14.76,17.01-7.61.68,1.41.76,3.71-.4,4.84Z"/>
  <path class="st0" d="M232.44,411.08c4.49-.74,16.89-.41,10.84,6.15-1.68,1.82-12.41,6.23-14.71,5.47-1.27-.42-2.93-6.39-2.65-7.57.46-1.92,4.64-3.74,6.51-4.05Z"/>
  <path class="st0" d="M456.78,414.49c-.36-.56-.29-2.46-.13-3.21,1.3-6.02,20.86-1.35,20.51,5.11-.1,1.83-2.02,4.46-4.12,4.16-2.43-1.82-15.3-4.55-16.27-6.07Z"/>
  <path class="st0" d="M139.98,178.59l-13.28,36.35c-1.57-1.4-3.03-2.69-3.38-4.86-1.25-7.83,10.2-26.33,16.66-31.5Z"/>
  <path class="st0" d="M467.12,392.5c5.16-.41,14.69,3.86,11.96,10.27-1.36,2.02-6.7-1.5-8.59-2.06s-8.16-1.26-8.95-2.39c-1.51-3.49,2.44-5.57,5.58-5.82Z"/>
  <path class="st0" d="M470.87,428.17c1.91,1.91-.13,5.03-2.28,5.94-5.91,2.5-17.17-6.49-12.75-9.52,1.66-1.14,13.72,2.27,15.03,3.58Z"/>
  <path class="st0" d="M196.12,435.33c-12.72,6.06-11.16-5.99-8.28-14.03,1.39-.3,1.49.41,2.14,1.24,1.23,1.53,6.92,11.72,6.14,12.8Z"/>
  <path class="st0" d="M435.36,372.34l-3.02,14.07c-9.8-1.03-5.08-7.73-4.2-14.13,1.26-1.74,5.35-.08,7.22.06Z"/>
  <path class="st0" d="M23.05,94.72c-2.96-7.47,7.52-15.08,12.89-7.79l-12.89,7.79Z"/>
  <path d="M239.3,219.62c47.59-5.61,49.81,73.64.55,68.81-37.63-3.69-37.34-64.47-.55-68.81Z"/>
  <path d="M328.58,271.1c-22.08-21.28-4.88-70.18,23.52-53.79,16.59,9.58,20.67,44.56,5.09,56.66-8.98,6.98-20.85,4.6-28.61-2.88Z"/>
  <path d="M300.02,267.03c6.91-1.2,18.85,18.64,12.42,24.07-3.91,3.3-7.46-1.75-10.34-1.64-2,.08-10.34,9.44-12.35.67-1.23-5.38,4.73-22.14,10.27-23.11Z"/>
  <path d="M407.79,439.32c9.13-.45,10.74,13.71,1.33,14.62s-11.01-14.14-1.33-14.62Z"/>
  <path d="M432.12,444.46c12.6-3.64,13.32,15.44,1.56,13.8-7.88-1.1-7.31-12.14-1.56-13.8Z"/>
  <path d="M409.33,432.19c-5.63,6.02-17-3.29-9.66-9.82,6.82-6.07,15.37,3.72,9.66,9.82Z"/>
  <path d="M422.2,431.18c8.27-.56,10.02,11.84,2.13,13.08-10.51,1.64-10.29-12.53-2.13-13.08Z"/>
  <path d="M422.11,413.49c9.47.25,8.2,15.29-1.93,12.65-7.43-1.94-5.62-12.85,1.93-12.65Z"/>
</svg>