<svg xmlns="http://www.w3.org/2000/svg" viewBox="0 0 512 512" role="img" aria-label="Reaper">
  <title>Reaper</title>
  <style>
    .fg { fill: #1b1b1b; }
    .cut { fill: #ffffff; }
    @media (prefers-color-scheme: dark) {
      .fg { fill: #f3f4f6; }
      .cut { fill: #0f1115; }
    }
  </style>
  <!-- Center the tall logo in a square canvas -->
  <g transform="translate(118.3 16) scale(1.0514)">
    <path
      class="fg"
      d="M92.85,170.53l11.18-31.32c13.82-25.34,37.33-50.98,68.83-48.68-3.11,37.17-17.96,73.79-41.84,102.31,7.15,12.93,12.62,27,14.85,41.69,20.86-4.61,36.95-21.48,50.5-37,2.57,7.77,2.42,16.23,3.78,24.22.18,1.06.26,3.97,1.71,3.77l1.03-68.48c.79-3.99,9.03-6.21,10.74-10.26,2.87-17.48,5.6-35.05,9.73-52.27,2.99-12.5,7.21-24.59,10.51-36.98-5.69.17-9.88,2.87-14.35,5.92-23.69-18.07-52.52-30.06-81.63-36.43-47.87-10.47-88.68-7.42-135.03,6.99-.72.23-3.86,1.47-2.49-.49C49.93-1.45,117.73-5.2,176.04,4.85c22.6,3.89,45.8,10.54,66.33,20.68,1.98-11.93,18.87-11.92,19.57-.53.44,7.17-6.96,23.86-9.35,31.77-8.53,28.15-16.98,56.34-21.52,85.51l.73,1.76c1.34,1.18,4.05,1.1,5.07,1.98,4.13,3.55.44,34.78,2.85,41.79-3.21,5.44-17.45,15.12-18.65,20.44-1.05,4.64.1,11.75-.17,16.83-1.7,31.59-4.32,63.55-9.21,94.79-6.35,40.62-17.52,80.27-28.85,119.66-7.59-9.68-13.03-22.62-17.26-34.23-15.56-42.74-19.09-88.67-29.22-132.78-8.31-36.19-21.27-79.27-58.51-94.98,9.78,7.75,18.85,16.33,25.42,27.07,43.79,76.89,18.58,173.49,57.57,251.92-60.33-19.4-115.7-61.77-142.17-120.32C.03,294.97-4.52,243.76,14.68,201.86c8.53-18.62,22.73-33.2,33.99-50.01,9.98-14.9,27.19-41.45,16.37-59.01s-36.19-.83-43.7,11.69c-1.5-.78.29-2.41.67-3.33,12.85-30.46,42.27-47.92,75.32-45.66,18.89,1.29,51.74,14.34,65.53,27.47,2.4,2.29.21,1.07-.92,1.18-29.28,2.77-69.09,41.1-69.09,70.83v15.5ZM112.84,143.53c-2.23,2.04-6.77,8.23-5.52,10.96.43.94,13.62,14.09,14.55,14.52,1.16.54,2.15.74,3.43.55,3.77-.55,11.08-16.18,14.12-19.97,2.06-2.57,5.63-4.23,6.88-6.12,2.55-3.86.64-8.82,2.3-12.7,1.3-3.04,5.01-3.26,6.75-7.25,3.13-7.16,1.67-17.08-1.51-24-9.79,4.37-18.61,10.72-25.98,18.51,2.06,1.19,4.18-1.45,6.52-1.41,3.96.07,11.6,8.4,7.91,12.84-6.33,7.6-18.84,4.9-18.93-5.93l-7.54,10.47,8.74,7.01-7.21,14.49c-3.73-3.32-5.26-6.92-4.51-11.98ZM232.69,148.69c-.2-.33-6.59-3.05-7.16-2.95-2.66.45-9.05,7.85-11.68,9.78,6.89-1.42,12.52-6.29,18.99-.99-.26-1.59.57-4.68-.15-5.84ZM233.85,165.53c1.26-5.96-3.07-6.66-7.5-8.64l-15.49,10.64c4.7.23,11.39-4.53,15.49-4.55,2.73-.01,4.77,2.53,7.5,2.55ZM233.69,171.69l-8.33-3.81-15.5,10.64c5.15-.08,11.02-4.26,15.89-4.5,2.81-.14,4.99,3.11,8.1,2.51l-.16-4.83ZM233.85,187.53c2.62-4.64-6.36-8.9-9.49-8.6-1.69.16-12.61,7.57-14.5,9.59,4.36-.6,10.39-3.8,14.6-3.91,3.59-.1,6.08,2.5,9.39,2.92Z"
    />
    <path
      class="cut"
      d="M112.84,143.53c-.75,5.06.78,8.66,4.51,11.98l7.21-14.49-8.74-7.01,7.54-10.47c.09,10.84,12.59,13.53,18.93,5.93,3.7-4.44-3.95-12.77-7.91-12.84-2.34-.04-4.46,2.59-6.52,1.41,7.37-7.78,16.18-14.13,25.98-18.51,3.19,6.92,4.64,16.84,1.51,24-1.74,3.99-5.45,4.22-6.75,7.25-1.66,3.88.24,8.84-2.3,12.7-1.25,1.89-4.81,3.55-6.88,6.12-3.05,3.79-10.36,19.42-14.12,19.97-1.28.19-2.27-.01-3.43-.55-.93-.43-14.12-13.59-14.55-14.52-1.25-2.74,3.29-8.92,5.52-10.96ZM145.85,135.54c-1.38-1.6-11.73,8.66-11.99,10.99,6.59-1.38,13.66-2.52,11.99-10.99Z"
    />
    <path
      class="cut"
      d="M233.69,171.69l.16,4.83c-3.11.6-5.29-2.64-8.1-2.51-4.87.24-10.74,4.42-15.89,4.5l15.5-10.64,8.33,3.81Z"
    />
    <path
      class="cut"
      d="M233.85,187.53c-3.32-.42-5.8-3.02-9.39-2.92-4.22.12-10.24,3.32-14.6,3.91,1.89-2.02,12.81-9.43,14.5-9.59,3.14-.3,12.11,3.95,9.49,8.6Z"
    />
    <path
      class="cut"
      d="M233.85,165.53c-2.72-.02-4.76-2.56-7.5-2.55-4.11.02-10.8,4.78-15.49,4.55l15.49-10.64c4.43,1.98,8.76,2.68,7.5,8.64Z"
    />
    <path
      class="cut"
      d="M232.69,148.69c.72,1.16-.1,4.25.15,5.84-6.47-5.3-12.1-.43-18.99.99,2.63-1.93,9.02-9.33,11.68-9.78.57-.1,6.96,2.62,7.16,2.95Z"
    />
    <path
      class="fg"
      d="M145.85,135.54c1.67,8.46-5.41,9.61-11.99,10.99.26-2.33,10.61-12.59,11.99-10.99Z"
    />
  </g>
</svg>
